<?xml version="1.0" encoding="iso-8859-1"?>
<!-- Generator: Adobe Illustrator 25.2.3, SVG Export Plug-In . SVG Version: 6.00 Build 0)  -->
<svg version="1.1" id="Layer_1" xmlns="http://www.w3.org/2000/svg" xmlns:xlink="http://www.w3.org/1999/xlink" x="0px" y="0px"
	 viewBox="0 0 48 48" style="enable-background:new 0 0 48 48;" xml:space="preserve">
<path style="fill:none;stroke:#000000;stroke-width:3;stroke-linecap:round;stroke-linejoin:round;stroke-miterlimit:1.5;" d="
	M11.083,12.438c-2.077,2.387-3.449,5.358-3.809,8.619c-1.614,0.508-2.79,1.94-2.79,3.657c0,1.794,1.28,3.28,3.005,3.719
	C8.986,35.875,15.804,41.5,23.998,41.5s15.012-5.625,16.508-13.067c1.726-0.439,3.006-1.925,3.006-3.719
	c0-1.717-1.177-3.149-2.79-3.657c-0.895-8.105-8.04-14.42-16.724-14.42"/>
<path style="fill:none;stroke:#000000;stroke-width:3;stroke-linecap:round;stroke-linejoin:round;stroke-miterlimit:1.5;" d="
	M37.71,14.398c0,0-14.492,6.43-22.933,1.743C8.703,12.769,8.703,4,8.703,4c6.074,4.047,10.954,2.637,16.35,2.637"/>
<circle style="fill-rule:evenodd;clip-rule:evenodd;" cx="17.527" cy="23.471" r="2.471"/>
<circle style="fill-rule:evenodd;clip-rule:evenodd;" cx="30.498" cy="23.5" r="2.5"/>
<path d="M18.963,31c0.58,2.296,2.596,4,5.017,4c2.421,0,4.437-1.704,5.018-4H18.963z"/>
</svg>