<svg xmlns="http://www.w3.org/2000/svg"  viewBox="0 0 64 64" width="128px" height="128px"><title>muslim islam islamic ornament ramadan_1</title><path d="M58.707,31.293l-7.3222-7.3223V13.6152a1,1,0,0,0-1-1H40.0293L32.707,5.293a.9994.9994,0,0,0-1.414,0l-7.3223,7.3222H13.6152a1,1,0,0,0-1,1V23.9707L5.293,31.293a.9994.9994,0,0,0,0,1.414l7.3222,7.3223V50.3848a1,1,0,0,0,1,1H23.9707L31.293,58.707a.9995.9995,0,0,0,1.414,0l7.3223-7.3222H50.3848a1,1,0,0,0,1-1V40.0293L58.707,32.707A.9994.9994,0,0,0,58.707,31.293Zm-9.0293,7.6152a.9992.9992,0,0,0-.2929.707v9.77h-9.77a.9992.9992,0,0,0-.707.2929L32,56.5859l-6.9082-6.9082a.9992.9992,0,0,0-.707-.2929h-9.77v-9.77a.9992.9992,0,0,0-.2929-.707L7.4141,32l6.9082-6.9082a.9992.9992,0,0,0,.2929-.707v-9.77h9.77a.9992.9992,0,0,0,.707-.2929L32,7.4141l6.9082,6.9082a.9992.9992,0,0,0,.707.2929h9.77v9.77a.9992.9992,0,0,0,.2929.707L56.5859,32Z"/><path d="M44.7617,38.3916A11.8028,11.8028,0,0,1,41,39a11.9945,11.9945,0,0,1-7.6807-21.2119,1,1,0,0,0-.5957-1.7676C32.49,16.01,32.2451,16,32,16A16,16,0,1,0,45.9521,39.83a1,1,0,0,0-1.19-1.4385ZM32,46a14.0007,14.0007,0,0,1-1.8174-27.8828A14.0023,14.0023,0,0,0,42.8164,40.8828,14.0251,14.0251,0,0,1,32,46Z"/><path d="M32.0488,24.875a.9984.9984,0,0,0,.2422,1.0137l2.5742,2.5879-.5615,3.6064a1,1,0,0,0,1.44,1.0459L39,31.4805l3.2568,1.6484a1,1,0,0,0,1.44-1.0459l-.5615-3.6064,2.5742-2.5879a1,1,0,0,0-.55-1.6924l-3.6035-.5811L39.89,20.3682a1.04,1.04,0,0,0-1.7792,0l-1.6661,3.247-3.6035.5811A1,1,0,0,0,32.0488,24.875Zm5.2139.6338a1.0005,1.0005,0,0,0,.73-.5313L39,23.0156l1.0068,1.9619a1.0005,1.0005,0,0,0,.73.5313l2.1787.3516L41.36,27.4248a.9982.9982,0,0,0-.2793.8584l.3388,2.1807-1.9687-.9971a1.0015,1.0015,0,0,0-.9024,0l-1.9687.9971.3388-2.1807a.9982.9982,0,0,0-.2793-.8584L35.084,25.86Z"/></svg>