<?xml version="1.0" encoding="iso-8859-1"?>
<!-- Generator: Adobe Illustrator 23.0.3, SVG Export Plug-In . SVG Version: 6.00 Build 0)  -->
<svg version="1.1" id="Layer_1" xmlns="http://www.w3.org/2000/svg" xmlns:xlink="http://www.w3.org/1999/xlink" x="0px" y="0px"
	 viewBox="0 0 50 50" style="enable-background:new 0 0 50 50;" xml:space="preserve">
<g>
	<polygon style="fill:none;stroke:#000000;stroke-width:2;stroke-linecap:round;stroke-linejoin:round;" points="25,45.042 
		3,41.883 3,8.117 25,4.958 	"/>
	<polygon style="fill:none;stroke:#000000;stroke-width:2;stroke-linecap:round;stroke-linejoin:round;" points="25,45.042 
		47,41.883 47,8.117 25,4.958 	"/>
</g>
<polygon style="fill:none;stroke:#000000;stroke-width:2;stroke-linecap:round;stroke-linejoin:round;" points="3,21.021 25,20 
	25,14 3,15.871 "/>
<polygon style="fill:none;stroke:#000000;stroke-width:2;stroke-linecap:round;stroke-linejoin:round;" points="47,21.021 25,20 
	25,14 47,15.871 "/>
<g>
	
		<line style="fill:none;stroke:#000000;stroke-width:2;stroke-linecap:round;stroke-linejoin:round;" x1="25.006" y1="24.643" x2="28.004" y2="24.744"/>
	
		<line style="fill:none;stroke:#000000;stroke-width:2;stroke-linecap:round;stroke-linejoin:round;" x1="43.183" y1="25.256" x2="46.181" y2="25.357"/>
	
		<line style="fill:none;stroke:#000000;stroke-width:2;stroke-linecap:round;stroke-linejoin:round;" x1="34.001" y1="24.946" x2="36.999" y2="25.047"/>
	<circle cx="31.003" cy="24.845" r="1"/>
	<circle cx="39.998" cy="25.148" r="1"/>
</g>
<g>
	
		<line style="fill:none;stroke:#000000;stroke-width:2;stroke-linecap:round;stroke-linejoin:round;" x1="25.181" y1="24.643" x2="22.183" y2="24.744"/>
	
		<line style="fill:none;stroke:#000000;stroke-width:2;stroke-linecap:round;stroke-linejoin:round;" x1="7.004" y1="25.256" x2="4.006" y2="25.357"/>
	
		<line style="fill:none;stroke:#000000;stroke-width:2;stroke-linecap:round;stroke-linejoin:round;" x1="16.187" y1="24.946" x2="13.188" y2="25.047"/>
	<circle cx="19.185" cy="24.845" r="1"/>
	<circle cx="10.19" cy="25.148" r="1"/>
</g>
</svg>