<svg xmlns="http://www.w3.org/2000/svg"  viewBox="0 0 64 64" width="128px" height="128px"><path d="M35.317 45.243c-.054 1.241-.109 2.984-.164 4.727-.061 1.947-.122 3.894-.182 5.132a1.6 1.6 0 00.233.985c.679 1.035 2.559 1.291 5.525 1.291.949 0 2.008-.026 3.175-.062 1.128-.034 2.195-.067 2.954-.044A1.993 1.993 0 0048.9 55.507l.669-6.783a20.6 20.6 0 014.514-10.3 22.884 22.884 0 003.043-4.6l4.145-8.564A3.106 3.106 0 0061.4 22.87a2.976 2.976 0 00-1.576-1.717 4.025 4.025 0 00-3.986.412c.008-.055.016-.11.025-.166.055-.352.122-.7.19-1.05a11.368 11.368 0 00.3-3.393 18.659 18.659 0 00-.906-3.834 3 3 0 00-2.676-1.95 3.052 3.052 0 00-1.1.17L51.43 9.613a2.982 2.982 0 00-5.776-.627 2.892 2.892 0 00-.8-.158A3 3 0 0041.732 11.7a.955.955 0 000 .131l.191 2.18a2.775 2.775 0 00-1.63-.538 2.936 2.936 0 00-2.891 3.717c.077.3.18.629.287.964a6.464 6.464 0 01.431 2c-.015.264-.057.531-.1.8-.024.159-.048.316-.068.472-.15 1.163-.244 2.158-.338 3.154-.073.772-.147 1.547-.247 2.4a2.982 2.982 0 00-1.537 1.311l-1.39 2.432a7.387 7.387 0 00-.386 6.555A16.872 16.872 0 0135.317 45.243zm4.2-29.435a.977.977 0 01.752-.34c.229 0 .765.012 1.131 1.391a15.01 15.01 0 01.632 3.689c-.082.755-.177 1.515-.282 2.292-.058.426-.116.853-.171 1.283l-.383 3-1.8-.251c.083-.74.149-1.43.214-2.116.092-.974.184-1.949.33-3.088.018-.14.04-.281.062-.423.05-.329.1-.662.118-.99a7.906 7.906 0 00-.522-2.713c-.095-.3-.187-.585-.256-.854A1.007 1.007 0 0139.513 15.808zm-3.99 17.825a5.358 5.358 0 01.659-1.929l1.389-2.432a1 1 0 011.007-.494l3.351.468h0l1.247.174a1 1 0 00.277-1.981l-.283-.039.386-3.026q.081-.636.169-1.266c.108-.8.209-1.612.3-2.431 0-.015.009-.028.009-.043v-.028a22.721 22.721 0 00.1-4.342l-.4-4.537a1 1 0 011.038-.9 1.017 1.017 0 01.922.729c.215 1.069.331 2.211.444 3.315l.081.774a21.471 21.471 0 01-.378 5.587c-.09.582-.18 1.165-.257 1.752l-.5 3.784a1 1 0 001.984.261l.5-3.785c.075-.572.163-1.139.25-1.706a23.207 23.207 0 00.39-6.106l-.079-.764c-.118-1.151-.239-2.342-.473-3.5a2.462 2.462 0 00-.095-.317l-.094-.7a1 1 0 011.983-.268l.425 3.141a2.857 2.857 0 00-.107.267 3.135 3.135 0 00.085 1.833l.506 2.077a5.052 5.052 0 01-.129 1.867c-.046.249-.09.494-.124.727l-1.02 7.135a1 1 0 00.849 1.132 1.146 1.146 0 00.143.01 1 1 0 00.988-.859l1.02-7.134c.03-.21.07-.428.111-.65a6.529 6.529 0 00.106-2.7l-.52-2.132a1.535 1.535 0 01-.1-.724 1 1 0 011.862-.132 16.937 16.937 0 01.818 3.416 9.732 9.732 0 01-.275 2.81c-.072.373-.144.746-.2 1.122-.176 1.125-.344 2.251-.512 3.378l-.146.974-2.013 3.59a3.274 3.274 0 01-2.524 1.723 5.456 5.456 0 00-3.754 2l-2.51 3.109A1 1 0 1043.98 37.12l2.509-3.109a3.447 3.447 0 012.372-1.262 5.27 5.27 0 004.094-2.738l3.411-6.086a2.012 2.012 0 012.626-.95.989.989 0 01.522.575 1.093 1.093 0 01-.041.844l-4.145 8.564a20.952 20.952 0 01-2.784 4.194 22.639 22.639 0 00-4.959 11.336l-.669 6.785c-.816-.025-1.913.009-3.073.044-1.968.058-5.97.181-6.868-.265.059-1.251.118-3.135.177-5.02.055-1.733.109-3.467.163-4.7A18.915 18.915 0 0035.9 36.485 5.4 5.4 0 0135.523 33.633zM6.923 33.829a22.952 22.952 0 003.042 4.6 20.563 20.563 0 014.51 10.256l.679 6.862a1.993 1.993 0 002.039 1.726c.759-.021 1.825.01 2.954.044 1.167.036 2.227.062 3.175.062 2.966 0 4.846-.256 5.525-1.29a1.612 1.612 0 00.234-.984c-.061-1.24-.123-3.187-.184-5.134-.054-1.743-.109-3.486-.164-4.727a16.859 16.859 0 011.259-7.976 7.391 7.391 0 00-.387-6.555L28.216 28.28a2.983 2.983 0 00-1.531-1.309c-.1-.854-.175-1.63-.249-2.4-.1-1-.192-1.991-.342-3.152-.02-.157-.044-.314-.068-.473-.041-.265-.083-.532-.1-.8a6.435 6.435 0 01.431-2c.106-.335.209-.66.287-.964a2.992 2.992 0 00-.539-2.617 3.043 3.043 0 00-2.352-1.1 2.775 2.775 0 00-1.63.538l.19-2.18a.955.955 0 000-.131 3 3 0 00-3.127-2.867 2.893 2.893 0 00-.794.158 2.992 2.992 0 00-5.776.627l-.233 1.722a2.907 2.907 0 00-1.1-.163 3 3 0 00-2.678 1.95A18.744 18.744 0 007.7 16.956 11.407 11.407 0 008 20.35c.067.348.135.7.19 1.05.01.059.018.119.027.179a4 4 0 00-3.989-.426A2.978 2.978 0 002.656 22.87a3.106 3.106 0 00.122 2.395zM23.786 15.468a.894.894 0 01.752.34 1 1 0 01.17.881c-.068.269-.161.558-.255.854a7.882 7.882 0 00-.522 2.713c.018.328.068.661.118.99.021.142.043.283.061.424.147 1.139.241 2.115.334 3.09.066.685.134 1.373.217 2.113l-1.8.251-.383-3c-.055-.43-.113-.857-.171-1.283-.105-.777-.2-1.537-.282-2.292a15.01 15.01 0 01.632-3.689C23.021 15.48 23.557 15.472 23.786 15.468zM4.537 23.55a.986.986 0 01.522-.575 2.027 2.027 0 012.654 1L11.1 30.011a5.27 5.27 0 004.1 2.738 3.442 3.442 0 012.37 1.262l2.51 3.109a1 1 0 101.557-1.256l-2.511-3.11a5.457 5.457 0 00-3.752-2 3.273 3.273 0 01-2.525-1.723l-2.013-3.587-.146-.977c-.168-1.127-.336-2.253-.512-3.377-.058-.376-.13-.75-.2-1.122a9.74 9.74 0 01-.274-2.811 16.888 16.888 0 01.818-3.416 1 1 0 01.862-.573 1.029 1.029 0 011 .705 1.535 1.535 0 01-.1.724l-.52 2.133a6.525 6.525 0 00.1 2.7c.042.222.082.44.112.65l1.02 7.134a1 1 0 00.988.859 1.159 1.159 0 00.143-.01 1 1 0 00.848-1.132l-1.02-7.135c-.033-.233-.077-.478-.123-.727a5.052 5.052 0 01-.129-1.867l.506-2.077a3.143 3.143 0 00.085-1.833c-.029-.093-.071-.179-.107-.267L14.6 9.881a1 1 0 011.981.27l-.094.694a2.458 2.458 0 00-.094.317c-.235 1.166-.356 2.359-.474 3.513l-.078.756a23.3 23.3 0 00.389 6.107c.088.566.176 1.134.25 1.706l.5 3.784a1 1 0 001.983-.261l-.5-3.784c-.077-.587-.167-1.17-.257-1.751a21.434 21.434 0 01-.377-5.588l.079-.766c.112-1.107.229-2.251.444-3.323a1.02 1.02 0 01.922-.729 1.038 1.038 0 01.719.262.991.991 0 01.319.64l-.4 4.537a22.8 22.8 0 00.1 4.342v.028c0 .015.008.028.008.043.086.819.188 1.632.3 2.431.057.42.115.842.169 1.266l.386 3.026-.283.039a1 1 0 00.277 1.981l1.247-.174h0l3.351-.468a1 1 0 011.006.494l1.39 2.432a5.387 5.387 0 01.282 4.781 18.927 18.927 0 00-1.416 8.846c.055 1.234.109 2.968.163 4.7.059 1.855.117 3.71.176 4.994-1 .469-4.927.349-6.866.291-1.16-.035-2.257-.068-3.069-.006l-.679-6.863a22.583 22.583 0 00-4.954-11.3 21.02 21.02 0 01-2.783-4.195L4.579 24.394A1.089 1.089 0 014.537 23.55z"/></svg>