<svg xmlns="http://www.w3.org/2000/svg"  viewBox="0 0 64 64" width="128px" height="128px"><path d="M50.3125,50.68994h-.375v-3.7373H50.312a2.50315,2.50315,0,0,0,2.50049-2.50049,2.46787,2.46787,0,0,0-.2915-1.14648V7.106a3.00328,3.00328,0,0,0-3-3H14.1875a3.00328,3.00328,0,0,0-3,3s0,41.5835.00262,41.59644a6.9046,6.9046,0,0,0,.1297,1.44263A7.0513,7.0513,0,0,0,18.229,55.67987V58.894a1.00009,1.00009,0,0,0,1.78418.62061L21.521,57.60986l1.50732,1.90479A1,1,0,0,0,24.8125,58.894V55.68945H50.31641a2.49976,2.49976,0,0,0-.00391-4.99951ZM50.521,7.106V41.97327c-.06989-.00592-.13708-.02112-.2085-.02112H18.34766a7.25707,7.25707,0,0,0-1.41016.14722V6.106H49.521A1.0013,1.0013,0,0,1,50.521,7.106Zm-36.3335-1h.75V42.80731a7.24394,7.24394,0,0,0-1.75,1.27173V7.106A1.0013,1.0013,0,0,1,14.1875,6.106ZM13.28174,49.7583a4.62511,4.62511,0,0,1,.97656-3.896,5.33774,5.33774,0,0,1,4.08936-1.91016H50.3125a.50024.50024,0,0,1-.00049,1.00049H18.689c-2.46973,0-4.479,1.73535-4.479,3.86816a4.12808,4.12808,0,0,0,4.019,3.829v1.03027A5.048,5.048,0,0,1,13.28174,49.7583ZM22.8125,56.019l-.50732-.64111a1.00012,1.00012,0,0,0-1.56836,0l-.50781.6416V49.82129h2.5835ZM19.229,47.82129a1,1,0,0,0-1,1v1.83246A2.1377,2.1377,0,0,1,16.21,48.8208c0-1.0127,1.13525-1.86816,2.479-1.86816H47.9375v3.7373H24.8125V48.82129a1,1,0,0,0-1-1Zm31.0874,5.86816H24.8125v-.99951h25.5a.49976.49976,0,0,1,.00391.99951ZM26.606,30.2334a1,1,0,0,0,1,1h3.17285L33.022,33.47705a.99964.99964,0,0,0,1.41406,0L36.6792,31.2334h3.17285a1,1,0,0,0,1-1V27.061l2.24316-2.24316a.99964.99964,0,0,0,0-1.41406l-2.24316-2.24365V17.98779a1,1,0,0,0-1-1H36.6792L34.436,14.74463a.99964.99964,0,0,0-1.41406,0l-2.24316,2.24316H27.606a1,1,0,0,0-1,1v3.17236l-2.24316,2.24365a.99964.99964,0,0,0,0,1.41406L26.606,27.061Zm-.12207-6.12256,1.8291-1.82959a1.00013,1.00013,0,0,0,.293-.707V18.98779h2.58691a1.00013,1.00013,0,0,0,.707-.293l1.8291-1.8291,1.8291,1.8291a1.00013,1.00013,0,0,0,.707.293h2.58691v2.58643a1.00013,1.00013,0,0,0,.293.707l1.8291,1.82959-1.8291,1.8291a1.00013,1.00013,0,0,0-.293.707V29.2334H36.26514a1.00013,1.00013,0,0,0-.707.293l-1.8291,1.8291-1.8291-1.8291a1.00013,1.00013,0,0,0-.707-.293H28.606V26.647a1.00013,1.00013,0,0,0-.293-.707Zm-5.38672,10.6665a3.00328,3.00328,0,0,1,3,3,1,1,0,0,0,1,1H42.36084a1,1,0,0,0,1-1,3.00328,3.00328,0,0,1,3-3,1,1,0,0,0,1-1V14.44385a1,1,0,0,0-1-1,3.00328,3.00328,0,0,1-3-3,1,1,0,0,0-1-1H25.09717a1,1,0,0,0-1,1,3.00328,3.00328,0,0,1-3,3,1,1,0,0,0-1,1v19.3335A1,1,0,0,0,21.09717,34.77734Zm1-19.43408a5.01487,5.01487,0,0,0,3.89941-3.89941H41.46143a5.01487,5.01487,0,0,0,3.89941,3.89941V32.87793a5.01487,5.01487,0,0,0-3.89941,3.89941H25.99658a5.01487,5.01487,0,0,0-3.89941-3.89941Z"/></svg>