<?xml version="1.0" encoding="iso-8859-1"?>
<!-- Generator: Adobe Illustrator 24.0.1, SVG Export Plug-In . SVG Version: 6.00 Build 0)  -->
<svg version="1.1" id="Layer_1" xmlns="http://www.w3.org/2000/svg" xmlns:xlink="http://www.w3.org/1999/xlink" x="0px" y="0px"
	 viewBox="0 0 480 480" style="enable-background:new 0 0 480 480;" xml:space="preserve">
<g>
	<path d="M447.296,59H32.704C14.671,59,0,73.671,0,91.704v296.592C0,406.329,14.671,421,32.704,421h414.592
		C465.329,421,480,406.329,480,388.296V91.704C480,73.671,465.329,59,447.296,59z M464,388.296c0,9.21-7.493,16.704-16.704,16.704
		H32.704C23.494,405,16,397.507,16,388.296V91.704C16,82.493,23.494,75,32.704,75h414.592C456.507,75,464,82.493,464,91.704V388.296
		z"/>
	<path d="M426,133h-94c-4.418,0-8,3.582-8,8v64c0,4.418,3.582,8,8,8h94c4.418,0,8-3.582,8-8v-64C434,136.582,430.418,133,426,133z
		 M418,197h-78v-48h78V197z"/>
	<path d="M379,253c-4.418,0-8,3.582-8,8s3.582,8,8,8c17.094,0,31,13.906,31,31s-13.906,31-31,31s-31-13.906-31-31
		c0-4.418-3.582-8-8-8s-8,3.582-8,8c0,25.916,21.084,47,47,47s47-21.084,47-47S404.916,253,379,253z"/>
	<path d="M289,189.038c4.418,0,8-3.582,8-8s-3.582-8-8-8h-29.745c-45.116-60.651-135.458-60.564-180.509,0H49c-4.418,0-8,3.582-8,8
		s3.582,8,8,8h19.802c-6.67,13.061-10.856,27.59-11.942,42.962H49c-4.418,0-8,3.582-8,8s3.582,8,8,8h7.861
		c1.086,15.372,5.272,29.901,11.942,42.962H49c-4.418,0-8,3.582-8,8s3.582,8,8,8h29.746c33.092,44.487,92.821,57.905,141.182,33.295
		c3.938-2.004,5.505-6.821,3.501-10.758c-2.005-3.938-6.823-5.506-10.758-3.501C151.832,356.959,78.524,316.069,72.907,248h192.182
		c-1.255,15.281-6.092,29.947-14.214,42.962H142.419c-4.418,0-8,3.582-8,8s3.582,8,8,8H289c4.418,0,8-3.582,8-8s-3.582-8-8-8
		h-19.777c6.807-13.355,10.858-27.912,11.917-42.962H289c4.418,0,8-3.582,8-8s-3.582-8-8-8h-7.86
		c-1.086-15.372-5.272-29.901-11.942-42.962H289z M238.315,173.038H99.685C137.644,133.757,200.339,133.74,238.315,173.038z
		 M265.093,232H72.907c1.294-15.676,6.353-30.298,14.269-42.962h163.647C258.74,201.702,263.8,216.324,265.093,232z"/>
</g>
<g>
</g>
<g>
</g>
<g>
</g>
<g>
</g>
<g>
</g>
<g>
</g>
<g>
</g>
<g>
</g>
<g>
</g>
<g>
</g>
<g>
</g>
<g>
</g>
<g>
</g>
<g>
</g>
<g>
</g>
</svg>