<svg xmlns="http://www.w3.org/2000/svg" viewBox="0 0 80 80"><path d="M37.43 72.43c2.22 0 4.434-.226 6.58-.672a1 1 0 1 0-.407-1.958c-2.012.418-4.09.63-6.173.63C20.65 70.43 7 56.78 7 40S20.65 9.57 37.43 9.57 67.86 23.22 67.86 40c0 2.9-.41 5.747-1.208 8.495l-3.609-5.331a1 1 0 1 0-1.656 1.12l4.757 7.029c.021.031.054.05.078.078.043.05.087.095.14.137.053.042.11.074.17.104.035.018.06.046.098.06.026.01.052.005.078.012.027.007.048.025.075.03a.987.987 0 0 0 .19.018c.008 0 .017-.003.026-.003.032-.001.063-.01.095-.015a.984.984 0 0 0 .351-.112c.029-.015.06-.023.088-.041l7.028-4.758a1 1 0 1 0-1.122-1.656l-4.658 3.153c.716-2.7 1.08-5.488 1.08-8.32 0-17.882-14.549-32.43-32.43-32.43C19.547 7.57 5 22.118 5 40s14.548 32.43 32.43 32.43z"/></svg>