<svg width="512" height="512" viewBox="0 0 512 512" fill="none" xmlns="http://www.w3.org/2000/svg">
<path d="M214.951 256.352H26.781M485.883 256.352H297.685M86.028 78.847H26.781M485.883 78.847H168.738M137.72 433.861H26.781M485.883 433.861H220.431" stroke="#8789A3" stroke-width="18" stroke-miterlimit="2.613" stroke-linecap="round" stroke-linejoin="round"/>
<path d="M127.409 129.193C99.629 129.193 77.028 106.608 77.028 78.846C77.028 51.078 99.629 28.489 127.409 28.489C155.161 28.489 177.739 51.079 177.739 78.846C177.738 106.608 155.161 129.193 127.409 129.193ZM127.409 46.489C109.554 46.489 95.028 61.005 95.028 78.846C95.028 96.682 109.554 111.193 127.409 111.193C145.236 111.193 159.739 96.682 159.739 78.846C159.738 61.005 145.235 46.489 127.409 46.489ZM256.332 306.709C228.552 306.709 205.951 284.119 205.951 256.352C205.951 228.587 228.552 205.999 256.332 205.999C284.097 205.999 306.685 228.587 306.685 256.352C306.685 284.119 284.097 306.709 256.332 306.709ZM256.332 223.999C238.477 223.999 223.951 238.513 223.951 256.352C223.951 274.194 238.477 288.709 256.332 288.709C274.172 288.709 288.685 274.193 288.685 256.352C288.685 238.513 274.172 223.999 256.332 223.999ZM179.079 484.214C151.311 484.214 128.72 461.626 128.72 433.861C128.72 406.097 151.311 383.509 179.079 383.509C206.843 383.509 229.431 406.097 229.431 433.861C229.431 461.626 206.843 484.214 179.079 484.214ZM179.079 401.51C161.236 401.51 146.72 416.023 146.72 433.862C146.72 451.701 161.236 466.215 179.079 466.215C196.918 466.215 211.431 451.701 211.431 433.862C211.431 416.023 196.917 401.51 179.079 401.51Z" fill="#8789A3"/>
</svg>
