<svg width="80" height="80" viewBox="0 0 80 80" fill="none" xmlns="http://www.w3.org/2000/svg">
<path d="M23.355 45.862L5.355 71.862C5.14734 72.1621 5.02575 72.5133 5.00342 72.8776C4.98109 73.2419 5.05886 73.6053 5.22831 73.9286C5.39776 74.2518 5.65243 74.5225 5.96472 74.7114C6.27702 74.9003 6.63504 75.0001 7 75H73C73.3539 75 73.7015 74.9061 74.0073 74.7278C74.3131 74.5496 74.566 74.2934 74.7404 73.9854C74.9148 73.6774 75.0043 73.3287 74.9999 72.9748C74.9954 72.6209 74.8971 72.2745 74.715 71.971L51 32.446V23H69C69.5304 23 70.0391 22.7893 70.4142 22.4142C70.7893 22.0391 71 21.5304 71 21V7C71 6.46957 70.7893 5.96086 70.4142 5.58579C70.0391 5.21071 69.5304 5 69 5H49C48.4696 5 47.9609 5.21071 47.5858 5.58579C47.2107 5.96086 47 6.46957 47 7V32.446L33.237 55.384L26.645 45.862C26.461 45.5959 26.2152 45.3784 25.9287 45.2282C25.6422 45.078 25.3235 44.9995 25 44.9995C24.6765 44.9995 24.3578 45.078 24.0713 45.2282C23.7848 45.3784 23.539 45.5959 23.355 45.862V45.862ZM51 9H67V19H51V9ZM35.056 60.128L35.087 60.075L49 36.887L69.468 71H28.532L35.056 60.128ZM30.978 59.148L23.868 71H10.817L25 50.514L30.978 59.149V59.148Z" fill="#8789A3"/>
</svg>
